<svg id="Layer_1" data-name="Layer 1" xmlns="http://www.w3.org/2000/svg" xmlns:xlink="http://www.w3.org/1999/xlink" viewBox="0 0 1080 544.44"><defs><style>.cls-1{fill:none;clip-rule:evenodd;}.cls-2{fill:#104ea0;}.cls-3{clip-path:url(#clip-path);}.cls-4{fill:url(#linear-gradient);}.cls-5,.cls-6{fill:#fff;}.cls-6{fill-rule:evenodd;}</style><clipPath id="clip-path"><path class="cls-1" d="M343.87,192.34S364.5,213,362.8,213.28l-3.41.56A18.28,18.28,0,0,0,356,210c-1.49-1-1.61,2.71-1.61,2.71l-3.42-.8,1.47-4.5ZM212.34,134.7c5.31,25.3,43,52.66,73,79.19,45.16,31.4,54.73,50.61,41.51,92.5,1-35-36.67-50.75-66-68.43C231.8,219.83,176.74,170.16,212.34,134.7Zm-16.49,70.54c21.8,38.44,73.59,40.45,109.64,71.83,12.78,12.9,18.25,24.67,15.44,34.12-10.22-16.59-27.88-26.63-48.46-33.13-22.53-8-47-13.44-58.78-24.47C196.45,241.53,192.94,224.54,195.85,205.24ZM194,253.05c18.13,26.4,90.91,25.45,116.3,54.05,15.44,17.87-7.19,28.48-20,36.17,45.19-27.84-21.18-43.32-43.37-46.38-23.9-1.73-37.94-7.32-50.18-26.06C193.85,264.89,191.92,258.47,194,253.05Zm79.85-56.7c14.78,13,28.57,24,42.86,36.49l12.76,13.67c3.4-6.7,7.17-13.24,15.74-16.88,12.69-1.85,33.26,3,32.64,17.6,14.2-7.8,7.38-25.31-4.63-27.5,2.73-15.43-11.66-26.4-34.52-35.18C310.25,176.42,288.24,180.7,273.83,196.35Z"/></clipPath><linearGradient id="linear-gradient" x1="252.66" y1="145.41" x2="318.1" y2="338.4" gradientUnits="userSpaceOnUse"><stop offset="0" stop-color="#2291bb"/><stop offset="1" stop-color="#58db46"/></linearGradient></defs><rect class="cls-2" width="1080" height="544.44"/><g class="cls-3"><rect class="cls-4" x="176.74" y="134.7" width="215.3" height="208.57"/></g><rect class="cls-5" x="399.33" y="181.7" width="126.94" height="33.65"/><polygon class="cls-6" points="438.08 291.81 526.27 291.81 526.27 325.46 399.33 325.46 399.33 297.93 399.33 291.81 399.33 268.37 399.33 264.29 399.33 234.72 526.27 234.72 526.27 268.37 438.08 268.37 438.08 291.81"/><path class="cls-6" d="M673.6,198,652.7,218.4c-92-53.21-114.87,96.35-15.77,81.49V274.56H616.5V247h51V311.7c-80.36,56.64-157.84-31.61-120.31-97.37,30.47-50.88,98.53-45.8,126.43-16.32"/><path class="cls-6" d="M681.25,179.66V325.93h31.21s-2.55-97.33,0-97.33,42.31,81.47,42.31,81.47,17.62,2.72,21.9-2,42.52-72.76,39.76-74.35,0,93.7,0,93.7h31V178.64H814.81c-7.08,0-43.43,106.19-49.52,94.31L718,180.68Z"/><path class="cls-5" d="M497.05,400.31a6.43,6.43,0,0,1,0,.69,2,2,0,0,1-.15.49.77.77,0,0,1-.25.28.59.59,0,0,1-.32.08H482.85a1.48,1.48,0,0,1-.94-.33,1.38,1.38,0,0,1-.45-1.18v-25a1.39,1.39,0,0,1,.45-1.18,1.54,1.54,0,0,1,.94-.33h13.28a.69.69,0,0,1,.32.08.59.59,0,0,1,.23.28,2.62,2.62,0,0,1,.14.49,3.79,3.79,0,0,1,.05.73,3.49,3.49,0,0,1-.05.68,2.31,2.31,0,0,1-.14.48.69.69,0,0,1-.23.27.59.59,0,0,1-.32.09H485.18v8.76h9.4a.58.58,0,0,1,.32.1,1.05,1.05,0,0,1,.24.27,1.62,1.62,0,0,1,.14.48,5,5,0,0,1,0,.71,4.22,4.22,0,0,1,0,.67,1.48,1.48,0,0,1-.14.46.64.64,0,0,1-.24.25.66.66,0,0,1-.32.08h-9.4v10h11.11a.69.69,0,0,1,.32.08.82.82,0,0,1,.25.27,1.7,1.7,0,0,1,.15.48,6.73,6.73,0,0,1,0,.72M445.93,396a6.19,6.19,0,0,1-.55,2.67,5.44,5.44,0,0,1-1.57,2,7.05,7.05,0,0,1-2.42,1.21,10.75,10.75,0,0,1-3.09.41,11.51,11.51,0,0,1-2-.16,11.37,11.37,0,0,1-1.69-.4,11.68,11.68,0,0,1-1.26-.51,3.49,3.49,0,0,1-.75-.48,1.22,1.22,0,0,1-.35-.61,4.19,4.19,0,0,1-.11-1.06,6.43,6.43,0,0,1,0-.69,4.53,4.53,0,0,1,.11-.46.6.6,0,0,1,.18-.25.53.53,0,0,1,.28-.07,1.55,1.55,0,0,1,.7.3q.46.28,1.14.63a10,10,0,0,0,1.61.63,6.93,6.93,0,0,0,2.13.3,6.35,6.35,0,0,0,1.64-.2,3.66,3.66,0,0,0,1.28-.58,2.56,2.56,0,0,0,.83-1,3.18,3.18,0,0,0,.29-1.4,2.24,2.24,0,0,0-.42-1.38,4,4,0,0,0-1.11-1,8.72,8.72,0,0,0-1.56-.77l-1.77-.7c-.61-.26-1.21-.53-1.79-.84a6.76,6.76,0,0,1-1.56-1.13,5.25,5.25,0,0,1-1.11-1.61,5.33,5.33,0,0,1-.42-2.22,5.72,5.72,0,0,1,.44-2.2,5.07,5.07,0,0,1,1.33-1.83,6.66,6.66,0,0,1,2.22-1.27,9.7,9.7,0,0,1,4.66-.34,8.58,8.58,0,0,1,1.41.34,7,7,0,0,1,1.07.43,5.07,5.07,0,0,1,.67.42,1.38,1.38,0,0,1,.3.3,1,1,0,0,1,.11.3c0,.1.05.24.07.39a4.73,4.73,0,0,1,0,.58,5.85,5.85,0,0,1,0,.64,1.57,1.57,0,0,1-.11.44.7.7,0,0,1-.18.25.44.44,0,0,1-.24.07,1.13,1.13,0,0,1-.57-.25,8.78,8.78,0,0,0-.95-.5,8.59,8.59,0,0,0-1.37-.51,6,6,0,0,0-1.81-.25,5.44,5.44,0,0,0-1.6.21,2.92,2.92,0,0,0-1.14.58,2.24,2.24,0,0,0-.67.89,2.6,2.6,0,0,0-.23,1.11,2.33,2.33,0,0,0,.43,1.42,4,4,0,0,0,1.12,1,10.12,10.12,0,0,0,1.58.79l1.81.71c.61.25,1.22.52,1.81.82a7,7,0,0,1,1.59,1.1,4.86,4.86,0,0,1,1.53,3.72Zm-21.28-6.32a6.45,6.45,0,0,0-1.25-4.42,4.72,4.72,0,0,0-3.88-1.61,5.19,5.19,0,0,0-2.33.5,5,5,0,0,0-1.67,1.33,5.88,5.88,0,0,0-1,1.91,8.28,8.28,0,0,0-.41,2.29Zm3.59,1.05a1.54,1.54,0,0,1-.42,1.21,1.48,1.48,0,0,1-1,.35H414.07a12.37,12.37,0,0,0,.32,2.92,5.65,5.65,0,0,0,1.09,2.24,4.83,4.83,0,0,0,2,1.42,7.68,7.68,0,0,0,3,.51,12.21,12.21,0,0,0,2.47-.23,14.09,14.09,0,0,0,1.87-.51c.52-.18,1-.35,1.3-.5a2.16,2.16,0,0,1,.76-.23.51.51,0,0,1,.28.08.41.41,0,0,1,.17.23,1.14,1.14,0,0,1,.11.41,6.12,6.12,0,0,1,0,.66c0,.18,0,.34,0,.48s0,.26-.05.37a2,2,0,0,1-.11.29l-.2.25a3.51,3.51,0,0,1-.7.38,11.11,11.11,0,0,1-1.51.53,20.37,20.37,0,0,1-2.15.46,15.25,15.25,0,0,1-2.6.2,12,12,0,0,1-4.2-.67,7.69,7.69,0,0,1-3-2,8.51,8.51,0,0,1-1.85-3.32,15,15,0,0,1-.63-4.62,14.47,14.47,0,0,1,.65-4.52,9.5,9.5,0,0,1,1.86-3.39,8.31,8.31,0,0,1,3-2.14,9.6,9.6,0,0,1,3.86-.75,9.33,9.33,0,0,1,3.9.74,7.3,7.3,0,0,1,2.65,2,7.9,7.9,0,0,1,1.52,2.92,12.59,12.59,0,0,1,.49,3.58ZM407,398.32a6,6,0,0,1,0,.64,1.77,1.77,0,0,1-.07.45,2.06,2.06,0,0,1-.13.33,1.93,1.93,0,0,1-.35.41,5.29,5.29,0,0,1-.91.68,9.14,9.14,0,0,1-1.47.72,10.05,10.05,0,0,1-1.76.5,9.08,9.08,0,0,1-2,.2,9.39,9.39,0,0,1-3.72-.69,7,7,0,0,1-2.72-2,9.35,9.35,0,0,1-1.67-3.27,15.79,15.79,0,0,1-.57-4.46,15.4,15.4,0,0,1,.7-4.94,9.37,9.37,0,0,1,1.93-3.38,7.78,7.78,0,0,1,2.87-2,10.07,10.07,0,0,1,3.59-.63,9.64,9.64,0,0,1,1.8.17,11.51,11.51,0,0,1,1.62.45,7.62,7.62,0,0,1,1.31.66,5.6,5.6,0,0,1,.83.63,4.11,4.11,0,0,1,.36.41,1.7,1.7,0,0,1,.16.36,2.81,2.81,0,0,1,.09.47c0,.17,0,.39,0,.65a2.72,2.72,0,0,1-.19,1.18.57.57,0,0,1-.48.33,1.22,1.22,0,0,1-.75-.36,12.51,12.51,0,0,0-1.07-.79,8.5,8.5,0,0,0-1.57-.79,6,6,0,0,0-2.17-.36,4.53,4.53,0,0,0-4,2,10,10,0,0,0-1.37,5.73,14.07,14.07,0,0,0,.35,3.29,6.85,6.85,0,0,0,1.06,2.36,4.35,4.35,0,0,0,1.7,1.41,5.43,5.43,0,0,0,2.3.46,5.57,5.57,0,0,0,2.17-.39,8.66,8.66,0,0,0,1.61-.86c.45-.31.84-.59,1.15-.84a1.34,1.34,0,0,1,.72-.39.39.39,0,0,1,.26.09.72.72,0,0,1,.18.29,1.73,1.73,0,0,1,.12.52Q407,397.89,407,398.32Zm-20.18-23a2.37,2.37,0,0,1-.48,1.72,3.62,3.62,0,0,1-3.48,0,2.31,2.31,0,0,1-.47-1.68,2.42,2.42,0,0,1,.48-1.72,2.61,2.61,0,0,1,1.76-.45,2.57,2.57,0,0,1,1.73.44A2.33,2.33,0,0,1,386.77,375.28Zm-.39,26a.55.55,0,0,1-.09.29.71.71,0,0,1-.28.21,2.63,2.63,0,0,1-.55.13c-.23,0-.53,0-.89,0s-.64,0-.87,0a2.48,2.48,0,0,1-.55-.13.62.62,0,0,1-.29-.21.54.54,0,0,1-.07-.29V381.84a.5.5,0,0,1,.07-.27.58.58,0,0,1,.29-.23,2.55,2.55,0,0,1,.55-.12,6.81,6.81,0,0,1,.87-.05,7,7,0,0,1,.89.05,2.7,2.7,0,0,1,.55.12.66.66,0,0,1,.28.23.51.51,0,0,1,.09.27Zm-13.79-13.71a14,14,0,0,0-2.79-2.75,4.93,4.93,0,0,0-2.81-.94,3.93,3.93,0,0,0-2.31.65,4.92,4.92,0,0,0-1.55,1.71,8,8,0,0,0-.85,2.4,13,13,0,0,0-.28,2.72,18.25,18.25,0,0,0,.23,2.88,8.33,8.33,0,0,0,.78,2.5,4.79,4.79,0,0,0,1.5,1.76,3.88,3.88,0,0,0,2.32.66,5.21,5.21,0,0,0,1.37-.19,5.54,5.54,0,0,0,1.35-.65,11.59,11.59,0,0,0,1.45-1.18,18.73,18.73,0,0,0,1.59-1.78Zm3.59,13.71a.61.61,0,0,1-.08.3.56.56,0,0,1-.26.21,2.39,2.39,0,0,1-.48.12c-.21,0-.46,0-.74,0a7.2,7.2,0,0,1-.75,0,2.56,2.56,0,0,1-.51-.12.69.69,0,0,1-.28-.21.61.61,0,0,1-.08-.3v-2.59a13.41,13.41,0,0,1-3.19,2.6,7.27,7.27,0,0,1-3.62.92,7.51,7.51,0,0,1-3.65-.83,6.91,6.91,0,0,1-2.46-2.25,10.09,10.09,0,0,1-1.36-3.33,18.17,18.17,0,0,1-.44-4,17.48,17.48,0,0,1,.54-4.53,10.33,10.33,0,0,1,1.6-3.46,7.05,7.05,0,0,1,2.63-2.19,8.11,8.11,0,0,1,3.62-.77,6.57,6.57,0,0,1,3.12.75,11.1,11.1,0,0,1,2.8,2.2V372.52a.59.59,0,0,1,.07-.29.48.48,0,0,1,.3-.22,3.58,3.58,0,0,1,.54-.13,5.23,5.23,0,0,1,.86-.05,5.55,5.55,0,0,1,.89.05,2.92,2.92,0,0,1,.53.13.58.58,0,0,1,.3.22.53.53,0,0,1,.1.29Zm-23.18,0a.48.48,0,0,1-.09.29.71.71,0,0,1-.28.21,2.34,2.34,0,0,1-.55.13c-.23,0-.51,0-.86,0s-.66,0-.9,0a2.37,2.37,0,0,1-.54-.13.71.71,0,0,1-.28-.21.48.48,0,0,1-.09-.29V389.91a11.36,11.36,0,0,0-.26-2.68,5.48,5.48,0,0,0-.75-1.75,3.15,3.15,0,0,0-1.28-1.12,4,4,0,0,0-1.81-.4,4.58,4.58,0,0,0-2.67,1,14.73,14.73,0,0,0-2.8,2.8v13.61a.47.47,0,0,1-.08.29.71.71,0,0,1-.28.21,2.63,2.63,0,0,1-.55.13c-.23,0-.53,0-.89,0s-.64,0-.87,0a2.48,2.48,0,0,1-.55-.13.62.62,0,0,1-.29-.21.54.54,0,0,1-.07-.29V381.84a.5.5,0,0,1,.32-.5,1.4,1.4,0,0,1,.5-.14c.2,0,.48,0,.81,0s.58,0,.79,0a1.14,1.14,0,0,1,.49.14,1,1,0,0,1,.26.21.65.65,0,0,1,.07.29v2.58a11.81,11.81,0,0,1,3.27-2.7,7,7,0,0,1,3.28-.86,7.3,7.3,0,0,1,3.27.66,5.93,5.93,0,0,1,2.15,1.76,6.94,6.94,0,0,1,1.17,2.6,15.22,15.22,0,0,1,.36,3.55Zm-23.79,0a.5.5,0,0,1-.08.3.56.56,0,0,1-.31.2,3.23,3.23,0,0,1-.56.14,7.46,7.46,0,0,1-.9.05,7.28,7.28,0,0,1-.89-.05,3.29,3.29,0,0,1-.58-.14.5.5,0,0,1-.3-.2.51.51,0,0,1-.09-.3V374.43a.49.49,0,0,1,.09-.3.67.67,0,0,1,.33-.21,3.81,3.81,0,0,1,.58-.14,6.87,6.87,0,0,1,.86,0,7.46,7.46,0,0,1,.9,0,3.23,3.23,0,0,1,.56.14.57.57,0,0,1,.31.21.48.48,0,0,1,.08.3Zm-38.61-.4a1.11,1.11,0,0,1,.18.51.39.39,0,0,1-.21.34,1.68,1.68,0,0,1-.62.19,10.59,10.59,0,0,1-1.1.05q-.64,0-1,0a2.39,2.39,0,0,1-.6-.11.87.87,0,0,1-.35-.19,1.46,1.46,0,0,1-.21-.28L282,393.66l-4.65,7.72a1.46,1.46,0,0,1-.21.28.87.87,0,0,1-.35.19,2.39,2.39,0,0,1-.59.11c-.24,0-.57,0-1,0a9.42,9.42,0,0,1-1-.05,1.5,1.5,0,0,1-.58-.19.41.41,0,0,1-.18-.34,1.24,1.24,0,0,1,.21-.51l6.06-9.49L274,382.26a1.42,1.42,0,0,1-.18-.51.39.39,0,0,1,.2-.35,1.39,1.39,0,0,1,.63-.18,10.59,10.59,0,0,1,1.1-.05c.43,0,.76,0,1,0a2.49,2.49,0,0,1,.59.11.58.58,0,0,1,.32.17,1.22,1.22,0,0,1,.2.25l4.43,7.25,4.5-7.25a1.37,1.37,0,0,1,.19-.23,1,1,0,0,1,.29-.19,1.94,1.94,0,0,1,.53-.11c.22,0,.53,0,.91,0a9.42,9.42,0,0,1,1,.05,1.45,1.45,0,0,1,.59.16.32.32,0,0,1,.18.33,1.52,1.52,0,0,1-.22.55l-5.68,9Zm-23.1-11.22a6.45,6.45,0,0,0-1.25-4.42,4.74,4.74,0,0,0-3.89-1.61,5.15,5.15,0,0,0-2.32.5,4.85,4.85,0,0,0-1.67,1.33,6.07,6.07,0,0,0-1,1.91,8.28,8.28,0,0,0-.41,2.29Zm3.59,1.05a1.54,1.54,0,0,1-.42,1.21,1.5,1.5,0,0,1-1,.35H256.92a12.37,12.37,0,0,0,.32,2.92,5.52,5.52,0,0,0,1.09,2.24,4.83,4.83,0,0,0,2,1.42,7.68,7.68,0,0,0,3,.51,12,12,0,0,0,2.46-.23,13.85,13.85,0,0,0,1.88-.51c.52-.18,1-.35,1.3-.5a2.11,2.11,0,0,1,.76-.23.51.51,0,0,1,.28.08.41.41,0,0,1,.17.23,1.14,1.14,0,0,1,.11.41,6.12,6.12,0,0,1,0,.66,3.43,3.43,0,0,1,0,.48,2,2,0,0,1-.05.37.92.92,0,0,1-.11.29,1.84,1.84,0,0,1-.19.25,3.51,3.51,0,0,1-.7.38,11.11,11.11,0,0,1-1.51.53,20.37,20.37,0,0,1-2.15.46,15.33,15.33,0,0,1-2.6.2,11.94,11.94,0,0,1-4.2-.67,7.69,7.69,0,0,1-3-2,8.51,8.51,0,0,1-1.85-3.32,15,15,0,0,1-.63-4.62,14.47,14.47,0,0,1,.65-4.52,9.5,9.5,0,0,1,1.86-3.39,8.31,8.31,0,0,1,3-2.14,9.6,9.6,0,0,1,3.86-.75,9.33,9.33,0,0,1,3.9.74,7.3,7.3,0,0,1,2.65,2,7.9,7.9,0,0,1,1.52,2.92,12.59,12.59,0,0,1,.49,3.58Zm-20-7.62c0,.31,0,.58,0,.79a2.37,2.37,0,0,1-.09.51.67.67,0,0,1-.16.28.33.33,0,0,1-.27.1,1.06,1.06,0,0,1-.42-.1c-.17-.06-.35-.13-.56-.19l-.7-.18a3.73,3.73,0,0,0-.84-.09,2.83,2.83,0,0,0-1.07.21,4.19,4.19,0,0,0-1.08.73,8.41,8.41,0,0,0-1.2,1.32c-.42.55-.88,1.22-1.38,2v12.81a.48.48,0,0,1-.1.29.61.61,0,0,1-.27.21,2.63,2.63,0,0,1-.55.13c-.23,0-.52,0-.89,0s-.64,0-.87,0a2.48,2.48,0,0,1-.55-.13.62.62,0,0,1-.29-.21.54.54,0,0,1-.07-.29V381.84a.5.5,0,0,1,.32-.5,1.4,1.4,0,0,1,.51-.14c.19,0,.46,0,.8,0s.58,0,.79,0a1.1,1.1,0,0,1,.49.14.68.68,0,0,1,.25.21.55.55,0,0,1,.08.29v2.84a14.83,14.83,0,0,1,1.5-1.91,8.26,8.26,0,0,1,1.33-1.16A4.26,4.26,0,0,1,247,381a4.48,4.48,0,0,1,1.25-.17l.64,0c.23,0,.48.07.74.12a6.75,6.75,0,0,1,.7.2,1.59,1.59,0,0,1,.45.21.92.92,0,0,1,.17.21c0,.07.06.15.08.24a2.48,2.48,0,0,1,0,.45C251.05,382.52,251.05,382.78,251.05,383.11Zm-20.39,8.47a14.38,14.38,0,0,0-.29-3,7.4,7.4,0,0,0-1-2.46,4.76,4.76,0,0,0-1.82-1.68,6,6,0,0,0-2.87-.62,6.17,6.17,0,0,0-2.72.56,5,5,0,0,0-1.87,1.6,7,7,0,0,0-1.1,2.43,12.43,12.43,0,0,0-.36,3.07,14.35,14.35,0,0,0,.3,3,6.93,6.93,0,0,0,1,2.46,4.88,4.88,0,0,0,1.83,1.66,6.9,6.9,0,0,0,5.58.06,5,5,0,0,0,1.89-1.58,6.75,6.75,0,0,0,1.08-2.43A12.93,12.93,0,0,0,230.66,391.58Zm3.72-.23a14.6,14.6,0,0,1-.63,4.39,9.59,9.59,0,0,1-1.86,3.44,8.47,8.47,0,0,1-3.11,2.26,10.86,10.86,0,0,1-4.33.81,11.14,11.14,0,0,1-4.19-.71,7.54,7.54,0,0,1-3-2.08,9.09,9.09,0,0,1-1.77-3.3,15.37,15.37,0,0,1-.58-4.42,15.08,15.08,0,0,1,.61-4.37,9.84,9.84,0,0,1,1.86-3.46,8.41,8.41,0,0,1,3.1-2.25,11,11,0,0,1,4.34-.8,11.17,11.17,0,0,1,4.19.72,7.62,7.62,0,0,1,3,2.07,9,9,0,0,1,1.78,3.31A15.24,15.24,0,0,1,234.38,391.35Zm-22.71-15.89a7,7,0,0,1,0,.71,1.49,1.49,0,0,1-.15.49.7.7,0,0,1-.25.26.58.58,0,0,1-.3.09H200.69v9.52h9.68a.51.51,0,0,1,.29.08.68.68,0,0,1,.26.25,1.77,1.77,0,0,1,.15.46,7.2,7.2,0,0,1,0,.75,6.68,6.68,0,0,1,0,.71,2.27,2.27,0,0,1-.15.48,1.17,1.17,0,0,1-.26.28.52.52,0,0,1-.29.09h-9.68V401.3a.55.55,0,0,1-.09.29.58.58,0,0,1-.3.21,3.65,3.65,0,0,1-.57.14,6.86,6.86,0,0,1-.9.05,7.4,7.4,0,0,1-.89-.05,3.53,3.53,0,0,1-.58-.14.54.54,0,0,1-.3-.21.55.55,0,0,1-.09-.29V375.38a1.42,1.42,0,0,1,.44-1.18,1.54,1.54,0,0,1,.94-.33h12.58a.67.67,0,0,1,.3.08.69.69,0,0,1,.25.28,1.54,1.54,0,0,1,.15.51C211.65,374.94,211.67,375.19,211.67,375.46Z"/><path class="cls-5" d="M764.34,401.32a.48.48,0,0,1-.09.29.71.71,0,0,1-.28.21,2.37,2.37,0,0,1-.54.13c-.23,0-.52,0-.86,0s-.66,0-.89,0a2.63,2.63,0,0,1-.55-.13.75.75,0,0,1-.29-.21.48.48,0,0,1-.09-.29V389.48a11.11,11.11,0,0,0-.21-2.25,5.22,5.22,0,0,0-.7-1.75,3.14,3.14,0,0,0-1.2-1.12,3.62,3.62,0,0,0-1.73-.4,4.06,4.06,0,0,0-2.46,1,17,17,0,0,0-2.74,2.8v13.61a.47.47,0,0,1-.08.29.72.72,0,0,1-.3.21,2.34,2.34,0,0,1-.55.13c-.23,0-.52,0-.86,0s-.63,0-.87,0a2.59,2.59,0,0,1-.56-.13.68.68,0,0,1-.29-.21.54.54,0,0,1-.07-.29V389.48a9.77,9.77,0,0,0-.24-2.25,5.44,5.44,0,0,0-.71-1.75,3.21,3.21,0,0,0-1.2-1.12,3.61,3.61,0,0,0-1.72-.4,4.16,4.16,0,0,0-2.49,1,16.62,16.62,0,0,0-2.72,2.8v13.61a.48.48,0,0,1-.09.29.71.71,0,0,1-.28.21,2.34,2.34,0,0,1-.55.13c-.22,0-.52,0-.88,0s-.64,0-.87,0a2.59,2.59,0,0,1-.56-.13.59.59,0,0,1-.28-.21.55.55,0,0,1-.08-.29V381.84a.65.65,0,0,1,.07-.29.53.53,0,0,1,.26-.21,1.29,1.29,0,0,1,.5-.14c.2,0,.47,0,.8,0s.59,0,.79,0a1.19,1.19,0,0,1,.5.14.77.77,0,0,1,.25.21.65.65,0,0,1,.07.29v2.58a12.55,12.55,0,0,1,3.2-2.7,6.39,6.39,0,0,1,3.12-.86,7.67,7.67,0,0,1,2.18.29,5.71,5.71,0,0,1,1.69.78,5,5,0,0,1,1.26,1.22,7.21,7.21,0,0,1,.87,1.57,23.44,23.44,0,0,1,1.85-1.8,11.41,11.41,0,0,1,1.68-1.19,6.28,6.28,0,0,1,1.57-.66,5.89,5.89,0,0,1,1.54-.21,6.81,6.81,0,0,1,3.16.66,5.79,5.79,0,0,1,2.06,1.76,7,7,0,0,1,1.12,2.6,13.71,13.71,0,0,1,.34,3.13Zm-35.38,0a.48.48,0,0,1-.09.29.71.71,0,0,1-.28.21,2.37,2.37,0,0,1-.54.13c-.23,0-.51,0-.86,0s-.66,0-.89,0a2.63,2.63,0,0,1-.55-.13.75.75,0,0,1-.29-.21.48.48,0,0,1-.09-.29V389.48a11.11,11.11,0,0,0-.21-2.25,5.43,5.43,0,0,0-.69-1.75,3.16,3.16,0,0,0-1.21-1.12,3.61,3.61,0,0,0-1.72-.4,4.06,4.06,0,0,0-2.47,1,17,17,0,0,0-2.73,2.8v13.61a.48.48,0,0,1-.09.29.75.75,0,0,1-.29.21,2.59,2.59,0,0,1-.56.13c-.23,0-.52,0-.86,0s-.62,0-.87,0a2.74,2.74,0,0,1-.56-.13.59.59,0,0,1-.28-.21.47.47,0,0,1-.08-.29V389.48a9.77,9.77,0,0,0-.24-2.25,5.44,5.44,0,0,0-.71-1.75,3.21,3.21,0,0,0-1.2-1.12,3.55,3.55,0,0,0-1.72-.4,4.11,4.11,0,0,0-2.48,1,16.25,16.25,0,0,0-2.73,2.8v13.61a.48.48,0,0,1-.09.29.64.64,0,0,1-.28.21,2.37,2.37,0,0,1-.54.13c-.23,0-.53,0-.89,0s-.64,0-.87,0a2.48,2.48,0,0,1-.55-.13.62.62,0,0,1-.29-.21.54.54,0,0,1-.07-.29V381.84a.65.65,0,0,1,.06-.29.64.64,0,0,1,.26-.21,1.35,1.35,0,0,1,.5-.14q.3,0,.81,0c.31,0,.58,0,.78,0a1.19,1.19,0,0,1,.5.14.77.77,0,0,1,.25.21.54.54,0,0,1,.07.29v2.58a12.72,12.72,0,0,1,3.2-2.7,6.42,6.42,0,0,1,3.12-.86,7.62,7.62,0,0,1,2.18.29,5.9,5.9,0,0,1,1.7.78,5.18,5.18,0,0,1,1.25,1.22,7.24,7.24,0,0,1,.88,1.57,21.82,21.82,0,0,1,1.84-1.8,11.41,11.41,0,0,1,1.68-1.19,6.28,6.28,0,0,1,1.57-.66,5.9,5.9,0,0,1,1.55-.21,6.8,6.8,0,0,1,3.15.66,5.91,5.91,0,0,1,2.07,1.76,7.38,7.38,0,0,1,1.12,2.6A14.31,14.31,0,0,1,729,389Zm-37.88-9.74a14.37,14.37,0,0,0-.3-3,7.19,7.19,0,0,0-1-2.46,4.78,4.78,0,0,0-1.83-1.68,6,6,0,0,0-2.86-.62,6.17,6.17,0,0,0-2.72.56,5.1,5.1,0,0,0-1.88,1.6,6.94,6.94,0,0,0-1.09,2.43,12.43,12.43,0,0,0-.36,3.07,13.72,13.72,0,0,0,.3,3,6.75,6.75,0,0,0,1,2.46,4.88,4.88,0,0,0,1.83,1.66,6.9,6.9,0,0,0,5.58.06,5,5,0,0,0,1.89-1.58,6.75,6.75,0,0,0,1.08-2.43A12.93,12.93,0,0,0,691.08,391.58Zm3.72-.23a14.6,14.6,0,0,1-.63,4.39,9.59,9.59,0,0,1-1.86,3.44,8.47,8.47,0,0,1-3.11,2.26,10.86,10.86,0,0,1-4.33.81,11.14,11.14,0,0,1-4.19-.71,7.54,7.54,0,0,1-3-2.08,8.8,8.8,0,0,1-1.77-3.3,15.37,15.37,0,0,1-.58-4.42,15.08,15.08,0,0,1,.61-4.37,9.84,9.84,0,0,1,1.86-3.46,8.41,8.41,0,0,1,3.1-2.25,11,11,0,0,1,4.34-.8,11.17,11.17,0,0,1,4.19.72,7.66,7.66,0,0,1,3,2.07,9,9,0,0,1,1.79,3.31A15.24,15.24,0,0,1,694.8,391.35Zm-22.59,6.56a5.53,5.53,0,0,1,0,.61,1.93,1.93,0,0,1-.07.45,1.83,1.83,0,0,1-.14.35,2.44,2.44,0,0,1-.3.36,6.61,6.61,0,0,1-.91.66,10.68,10.68,0,0,1-1.73.87,14.75,14.75,0,0,1-2.36.71,13.23,13.23,0,0,1-2.91.29,12.69,12.69,0,0,1-4.92-.91,10,10,0,0,1-3.75-2.68,12.3,12.3,0,0,1-2.38-4.38,22.06,22.06,0,0,1,.07-12.23,13.52,13.52,0,0,1,2.52-4.62,10.8,10.8,0,0,1,3.89-2.88,12.22,12.22,0,0,1,5-1,12.94,12.94,0,0,1,2.36.22,16.43,16.43,0,0,1,2.13.57,10,10,0,0,1,1.74.8,5,5,0,0,1,1,.74,2.46,2.46,0,0,1,.39.44,1.42,1.42,0,0,1,.14.35,4.84,4.84,0,0,1,.09.49c0,.19,0,.42,0,.67a5.13,5.13,0,0,1,0,.74,2.07,2.07,0,0,1-.13.52.68.68,0,0,1-.21.3.39.39,0,0,1-.28.1,1.65,1.65,0,0,1-.86-.42,16,16,0,0,0-1.4-.94,12.18,12.18,0,0,0-2.09-.92,9,9,0,0,0-3-.42,7.72,7.72,0,0,0-3.41.74,7.11,7.11,0,0,0-2.63,2.2,10.59,10.59,0,0,0-1.69,3.54,17.4,17.4,0,0,0-.6,4.78,17.69,17.69,0,0,0,.57,4.72,9.92,9.92,0,0,0,1.66,3.42,6.86,6.86,0,0,0,2.64,2.08,8.59,8.59,0,0,0,3.55.7,9.51,9.51,0,0,0,2.93-.41,11.61,11.61,0,0,0,2.13-.92,16.43,16.43,0,0,0,1.44-.91,1.82,1.82,0,0,1,.9-.41.53.53,0,0,1,.26.06.43.43,0,0,1,.17.25,2.22,2.22,0,0,1,.11.5C672.2,397.31,672.21,397.58,672.21,397.91ZM618,396a6,6,0,0,1-.56,2.67,5.41,5.41,0,0,1-1.56,2,7.05,7.05,0,0,1-2.42,1.21,10.8,10.8,0,0,1-3.09.41,12.28,12.28,0,0,1-3.67-.56,10.2,10.2,0,0,1-1.26-.51,3.49,3.49,0,0,1-.75-.48,1.09,1.09,0,0,1-.35-.61,3.72,3.72,0,0,1-.12-1.06,4.44,4.44,0,0,1,0-.69c0-.19.07-.34.1-.46a.72.72,0,0,1,.19-.25.5.5,0,0,1,.27-.07,1.5,1.5,0,0,1,.7.3c.31.19.7.4,1.15.63a9.66,9.66,0,0,0,1.61.63,6.89,6.89,0,0,0,2.13.3,6.41,6.41,0,0,0,1.64-.2,3.61,3.61,0,0,0,1.27-.58,2.51,2.51,0,0,0,.84-1,3.18,3.18,0,0,0,.29-1.4,2.25,2.25,0,0,0-.43-1.38,4.07,4.07,0,0,0-1.1-1,9.06,9.06,0,0,0-1.56-.77l-1.78-.7c-.6-.26-1.2-.53-1.78-.84a6.61,6.61,0,0,1-1.57-1.13,5.43,5.43,0,0,1-1.11-1.61,5.33,5.33,0,0,1-.42-2.22,5.72,5.72,0,0,1,.44-2.2,5.07,5.07,0,0,1,1.33-1.83,6.66,6.66,0,0,1,2.22-1.27,9.74,9.74,0,0,1,4.67-.34,8.83,8.83,0,0,1,1.41.34,7.42,7.42,0,0,1,1.07.43,4.28,4.28,0,0,1,.66.42,1.26,1.26,0,0,1,.31.3,1.33,1.33,0,0,1,.11.3c0,.1.05.24.07.39a5,5,0,0,1,0,.58,6.13,6.13,0,0,1,0,.64,1.28,1.28,0,0,1-.12.44.6.6,0,0,1-.18.25.42.42,0,0,1-.24.07,1.11,1.11,0,0,1-.56-.25,10.17,10.17,0,0,0-1-.5,8.59,8.59,0,0,0-1.37-.51,5.87,5.87,0,0,0-1.81-.25,5.54,5.54,0,0,0-1.6.21,3,3,0,0,0-1.14.58,2.44,2.44,0,0,0-.67.89,2.76,2.76,0,0,0-.23,1.11,2.27,2.27,0,0,0,.44,1.42,4,4,0,0,0,1.12,1,10.12,10.12,0,0,0,1.58.79l1.8.71c.61.25,1.22.52,1.82.82a7,7,0,0,1,1.58,1.1,5,5,0,0,1,1.12,1.56A5.14,5.14,0,0,1,618,396Zm-21.28-6.32a6.51,6.51,0,0,0-1.25-4.42,4.74,4.74,0,0,0-3.89-1.61,5.15,5.15,0,0,0-2.32.5,5,5,0,0,0-1.68,1.33,6,6,0,0,0-1,1.91,7.93,7.93,0,0,0-.42,2.29Zm3.59,1.05a1.58,1.58,0,0,1-.42,1.21,1.52,1.52,0,0,1-1,.35H586.12a12.35,12.35,0,0,0,.33,2.92,5.51,5.51,0,0,0,1.08,2.24,4.86,4.86,0,0,0,2,1.42,7.66,7.66,0,0,0,3,.51,12.07,12.07,0,0,0,2.47-.23,13.68,13.68,0,0,0,1.87-.51c.53-.18,1-.35,1.3-.5a2.2,2.2,0,0,1,.77-.23.5.5,0,0,1,.27.08.39.39,0,0,1,.18.23,1.43,1.43,0,0,1,.1.41,5.83,5.83,0,0,1,0,.66c0,.18,0,.34,0,.48a3.33,3.33,0,0,1,0,.37.92.92,0,0,1-.11.29,1.84,1.84,0,0,1-.19.25,3.72,3.72,0,0,1-.71.38,11.11,11.11,0,0,1-1.51.53,20.15,20.15,0,0,1-2.14.46,15.41,15.41,0,0,1-2.6.2,11.94,11.94,0,0,1-4.2-.67,7.65,7.65,0,0,1-3-2,8.51,8.51,0,0,1-1.85-3.32,15.27,15.27,0,0,1-.63-4.62,14.77,14.77,0,0,1,.65-4.52,9.68,9.68,0,0,1,1.87-3.39,8.19,8.19,0,0,1,3-2.14,9.68,9.68,0,0,1,3.87-.75,9.33,9.33,0,0,1,3.9.74,7.39,7.39,0,0,1,2.65,2,8.21,8.21,0,0,1,1.52,2.92,13,13,0,0,1,.49,3.58Zm-22.75-15.45a2.37,2.37,0,0,1-.48,1.72,3.62,3.62,0,0,1-3.48,0,2.31,2.31,0,0,1-.47-1.68,2.37,2.37,0,0,1,.49-1.72,3.62,3.62,0,0,1,3.48,0A2.33,2.33,0,0,1,577.55,375.28Zm-.39,26a.48.48,0,0,1-.09.29.71.71,0,0,1-.28.21,2.48,2.48,0,0,1-.55.13c-.23,0-.52,0-.89,0s-.64,0-.87,0a2.48,2.48,0,0,1-.55-.13.62.62,0,0,1-.29-.21.54.54,0,0,1-.07-.29V381.84a.5.5,0,0,1,.07-.27.58.58,0,0,1,.29-.23,2.55,2.55,0,0,1,.55-.12,6.81,6.81,0,0,1,.87-.05,6.92,6.92,0,0,1,.89.05,2.55,2.55,0,0,1,.55.12.66.66,0,0,1,.28.23.44.44,0,0,1,.09.27Zm-8.33-1.45a4.43,4.43,0,0,1-.09,1,.94.94,0,0,1-.26.53,1.5,1.5,0,0,1-.51.33,4.07,4.07,0,0,1-.79.25,8.76,8.76,0,0,1-.94.16,6.59,6.59,0,0,1-1,.07,7.34,7.34,0,0,1-2.59-.4,4.12,4.12,0,0,1-1.77-1.21,5.12,5.12,0,0,1-1-2.05,12.51,12.51,0,0,1-.31-2.92V384.27h-2.73a.6.6,0,0,1-.53-.35,2.5,2.5,0,0,1-.19-1.12,3.42,3.42,0,0,1,0-.69,3,3,0,0,1,.14-.47.59.59,0,0,1,.23-.26.68.68,0,0,1,.32-.07h2.71v-4.63a.48.48,0,0,1,.08-.27.58.58,0,0,1,.29-.23,1.62,1.62,0,0,1,.55-.14,6.81,6.81,0,0,1,.87-.05,7,7,0,0,1,.89.05,1.62,1.62,0,0,1,.54.14.55.55,0,0,1,.28.23.42.42,0,0,1,.09.27v4.63h5a.64.64,0,0,1,.31.07.73.73,0,0,1,.22.26,1.46,1.46,0,0,1,.13.47,3.42,3.42,0,0,1,.05.69,2.5,2.5,0,0,1-.19,1.12.61.61,0,0,1-.52.35h-5V395.1a6.22,6.22,0,0,0,.59,3,2.24,2.24,0,0,0,2.12,1,4,4,0,0,0,.88-.09,6.4,6.4,0,0,0,.69-.21,5.31,5.31,0,0,0,.51-.21,1,1,0,0,1,.38-.09.36.36,0,0,1,.21.05.39.39,0,0,1,.15.21,1.58,1.58,0,0,1,.09.41A3,3,0,0,1,568.83,399.87Zm-16.27-24.59a2.37,2.37,0,0,1-.49,1.72,2.54,2.54,0,0,1-1.75.45,2.57,2.57,0,0,1-1.73-.44,2.31,2.31,0,0,1-.46-1.68,2.37,2.37,0,0,1,.48-1.72,2.54,2.54,0,0,1,1.75-.45,2.57,2.57,0,0,1,1.73.44A2.33,2.33,0,0,1,552.56,375.28Zm-.4,26a.48.48,0,0,1-.09.29.71.71,0,0,1-.28.21,2.48,2.48,0,0,1-.55.13c-.23,0-.53,0-.88,0s-.65,0-.88,0a2.48,2.48,0,0,1-.55-.13.68.68,0,0,1-.29-.21.54.54,0,0,1-.07-.29V381.84a.5.5,0,0,1,.07-.27.63.63,0,0,1,.29-.23,2.55,2.55,0,0,1,.55-.12,6.86,6.86,0,0,1,.88-.05,7,7,0,0,1,.88.05,2.55,2.55,0,0,1,.55.12.66.66,0,0,1,.28.23.44.44,0,0,1,.09.27Zm-10.2,0a.55.55,0,0,1-.08.29.61.61,0,0,1-.27.21,2.34,2.34,0,0,1-.51.13c-.21,0-.47,0-.77,0s-.6,0-.8,0a2.34,2.34,0,0,1-.51-.13.56.56,0,0,1-.24-.21.65.65,0,0,1-.06-.29v-2.58a12,12,0,0,1-3.3,2.67,7,7,0,0,1-3.28.84,7.35,7.35,0,0,1-3.28-.65,5.64,5.64,0,0,1-2.15-1.76,7.25,7.25,0,0,1-1.19-2.59,16.12,16.12,0,0,1-.35-3.6V381.84a.54.54,0,0,1,.07-.29.74.74,0,0,1,.3-.21,1.58,1.58,0,0,1,.56-.14q.35,0,.87,0c.34,0,.63,0,.86,0a1.52,1.52,0,0,1,.55.14.78.78,0,0,1,.29.21.48.48,0,0,1,.09.29v11.34a11.88,11.88,0,0,0,.25,2.74,4.9,4.9,0,0,0,.75,1.75,3.53,3.53,0,0,0,1.3,1.13,3.83,3.83,0,0,0,1.81.4,4.53,4.53,0,0,0,2.67-1,15.19,15.19,0,0,0,2.83-2.78V381.84a.54.54,0,0,1,.07-.29.74.74,0,0,1,.3-.21,1.52,1.52,0,0,1,.54-.14c.23,0,.52,0,.88,0s.64,0,.87,0a1.3,1.3,0,0,1,.53.14.92.92,0,0,1,.3.21.43.43,0,0,1,.1.29ZM515.1,387.61a14,14,0,0,0-2.78-2.75,4.94,4.94,0,0,0-2.82-.94,3.93,3.93,0,0,0-2.31.65,5,5,0,0,0-1.54,1.71,8.32,8.32,0,0,0-.86,2.4,13.71,13.71,0,0,0-.27,2.72,17.32,17.32,0,0,0,.23,2.91,8.08,8.08,0,0,0,.78,2.49,4.87,4.87,0,0,0,1.49,1.74,3.91,3.91,0,0,0,2.33.66,5.21,5.21,0,0,0,1.37-.19,5.31,5.31,0,0,0,1.34-.65,10.91,10.91,0,0,0,1.45-1.18,17.45,17.45,0,0,0,1.59-1.78ZM518.69,409a.54.54,0,0,1-.09.31.78.78,0,0,1-.3.22,2.44,2.44,0,0,1-.54.12,5.3,5.3,0,0,1-.86.05,5.42,5.42,0,0,1-.88-.05,2.87,2.87,0,0,1-.55-.12.53.53,0,0,1-.29-.22.62.62,0,0,1-.08-.31v-10a19.66,19.66,0,0,1-1.68,1.51,9.28,9.28,0,0,1-1.58,1,6.72,6.72,0,0,1-1.56.54,8.14,8.14,0,0,1-1.64.16,7.31,7.31,0,0,1-3.6-.83,6.93,6.93,0,0,1-2.44-2.25,9.88,9.88,0,0,1-1.36-3.33,18.17,18.17,0,0,1-.44-4,17.48,17.48,0,0,1,.54-4.53,10.15,10.15,0,0,1,1.61-3.46,7.21,7.21,0,0,1,2.63-2.19,8.17,8.17,0,0,1,3.62-.77,6.43,6.43,0,0,1,1.62.19,6.52,6.52,0,0,1,1.51.58,9.76,9.76,0,0,1,1.51,1c.51.42,1.07.93,1.68,1.52v-2.35a.57.57,0,0,1,.08-.31.71.71,0,0,1,.28-.21,1.93,1.93,0,0,1,.5-.12q.3,0,.75,0c.29,0,.53,0,.74,0a1.51,1.51,0,0,1,.49.13.55.55,0,0,1,.26.2.57.57,0,0,1,.07.31Z"/><path class="cls-5" d="M886.88,396a6.19,6.19,0,0,1-.56,2.67,5.31,5.31,0,0,1-1.56,2,7.05,7.05,0,0,1-2.42,1.21,10.8,10.8,0,0,1-3.09.41,12.28,12.28,0,0,1-3.67-.56,10.89,10.89,0,0,1-1.26-.51,3.9,3.9,0,0,1-.76-.48,1.14,1.14,0,0,1-.34-.61,3.77,3.77,0,0,1-.11-1.06,4.58,4.58,0,0,1,0-.69c0-.19.07-.34.1-.46a.72.72,0,0,1,.19-.25.5.5,0,0,1,.27-.07,1.5,1.5,0,0,1,.7.3c.31.19.7.4,1.14.63a9.8,9.8,0,0,0,1.62.63,6.89,6.89,0,0,0,2.13.3,6.41,6.41,0,0,0,1.64-.2,3.61,3.61,0,0,0,1.27-.58,2.51,2.51,0,0,0,.84-1,3.18,3.18,0,0,0,.29-1.4,2.24,2.24,0,0,0-.42-1.38,4.27,4.27,0,0,0-1.11-1,9.06,9.06,0,0,0-1.56-.77l-1.78-.7c-.6-.26-1.2-.53-1.78-.84a6.82,6.82,0,0,1-1.57-1.13,5.43,5.43,0,0,1-1.11-1.61,5.33,5.33,0,0,1-.42-2.22,5.55,5.55,0,0,1,.45-2.2,4.93,4.93,0,0,1,1.32-1.83,6.66,6.66,0,0,1,2.22-1.27,9.74,9.74,0,0,1,4.67-.34,8.45,8.45,0,0,1,1.4.34,7.13,7.13,0,0,1,1.08.43,5.07,5.07,0,0,1,.67.42,1.38,1.38,0,0,1,.3.3,1,1,0,0,1,.11.3c0,.1,0,.24.07.39a5,5,0,0,1,0,.58,6.13,6.13,0,0,1,0,.64,2,2,0,0,1-.11.44.86.86,0,0,1-.19.25.42.42,0,0,1-.24.07,1.11,1.11,0,0,1-.56-.25,10.17,10.17,0,0,0-1-.5,8.59,8.59,0,0,0-1.37-.51,5.87,5.87,0,0,0-1.81-.25,5.54,5.54,0,0,0-1.6.21,3,3,0,0,0-1.14.58,2.44,2.44,0,0,0-.67.89,2.76,2.76,0,0,0-.23,1.11,2.27,2.27,0,0,0,.44,1.42,4,4,0,0,0,1.12,1,10.12,10.12,0,0,0,1.58.79l1.8.71c.61.25,1.22.52,1.82.82a7,7,0,0,1,1.58,1.1,5,5,0,0,1,1.12,1.56,5.14,5.14,0,0,1,.42,2.16m-21.28-6.32a6.51,6.51,0,0,0-1.25-4.42,4.74,4.74,0,0,0-3.89-1.61,5.22,5.22,0,0,0-2.33.5,4.91,4.91,0,0,0-1.66,1.33,5.88,5.88,0,0,0-1,1.91,7.93,7.93,0,0,0-.42,2.29Zm3.59,1.05a1.55,1.55,0,0,1-.43,1.21,1.48,1.48,0,0,1-1,.35H855a11.85,11.85,0,0,0,.33,2.92,5.51,5.51,0,0,0,1.08,2.24,4.79,4.79,0,0,0,2,1.42,7.66,7.66,0,0,0,3,.51,12.14,12.14,0,0,0,2.47-.23,13.68,13.68,0,0,0,1.87-.51c.53-.18,1-.35,1.3-.5a2.14,2.14,0,0,1,.77-.23.48.48,0,0,1,.27.08.43.43,0,0,1,.18.23,1.39,1.39,0,0,1,.11.41,6.44,6.44,0,0,1,0,.66,3.54,3.54,0,0,1,0,.48,3.33,3.33,0,0,1-.05.37.92.92,0,0,1-.11.29,1.84,1.84,0,0,1-.19.25,3.51,3.51,0,0,1-.7.38,11.3,11.3,0,0,1-1.52.53,20.15,20.15,0,0,1-2.14.46,15.41,15.41,0,0,1-2.6.2,11.9,11.9,0,0,1-4.2-.67,7.65,7.65,0,0,1-3-2,8.51,8.51,0,0,1-1.85-3.32,15.27,15.27,0,0,1-.63-4.62,14.77,14.77,0,0,1,.65-4.52,9.68,9.68,0,0,1,1.87-3.39,8.19,8.19,0,0,1,3-2.14,9.64,9.64,0,0,1,3.87-.75,9.33,9.33,0,0,1,3.9.74,7.39,7.39,0,0,1,2.65,2,8.05,8.05,0,0,1,1.52,2.92,13,13,0,0,1,.49,3.58Zm-22.75-15.45A2.37,2.37,0,0,1,846,377a3.62,3.62,0,0,1-3.48,0,2.31,2.31,0,0,1-.46-1.68,2.37,2.37,0,0,1,.48-1.72,3.62,3.62,0,0,1,3.48,0A2.33,2.33,0,0,1,846.44,375.28Zm-.39,26a.55.55,0,0,1-.09.29.71.71,0,0,1-.28.21,2.48,2.48,0,0,1-.55.13c-.23,0-.52,0-.89,0s-.64,0-.87,0a2.48,2.48,0,0,1-.55-.13.62.62,0,0,1-.29-.21.54.54,0,0,1-.07-.29V381.84a.5.5,0,0,1,.07-.27.58.58,0,0,1,.29-.23,2.55,2.55,0,0,1,.55-.12,6.81,6.81,0,0,1,.87-.05,6.92,6.92,0,0,1,.89.05,2.55,2.55,0,0,1,.55.12.66.66,0,0,1,.28.23.51.51,0,0,1,.09.27Zm-8.33-1.45a4.43,4.43,0,0,1-.09,1,.94.94,0,0,1-.26.53,1.61,1.61,0,0,1-.51.33,4.07,4.07,0,0,1-.79.25,8.76,8.76,0,0,1-.94.16,6.59,6.59,0,0,1-1,.07,7.38,7.38,0,0,1-2.59-.4,4.19,4.19,0,0,1-1.77-1.21,5,5,0,0,1-1-2.05,12,12,0,0,1-.31-2.92V384.27h-2.75a.6.6,0,0,1-.52-.35,2.37,2.37,0,0,1-.19-1.12,3.42,3.42,0,0,1,0-.69,3,3,0,0,1,.14-.47.59.59,0,0,1,.23-.26.68.68,0,0,1,.32-.07h2.72v-4.63a.47.47,0,0,1,.07-.27.58.58,0,0,1,.29-.23,1.62,1.62,0,0,1,.55-.14,7.68,7.68,0,0,1,1.75,0,1.62,1.62,0,0,1,.55.14.6.6,0,0,1,.28.23.42.42,0,0,1,.09.27v4.63h5a.62.62,0,0,1,.31.07.56.56,0,0,1,.21.26,1.44,1.44,0,0,1,.15.47,4.49,4.49,0,0,1,0,.69,2.37,2.37,0,0,1-.19,1.12.59.59,0,0,1-.52.35h-5V395.1a6.22,6.22,0,0,0,.59,3,2.24,2.24,0,0,0,2.12,1,4,4,0,0,0,.88-.09,6.4,6.4,0,0,0,.69-.21l.51-.21a1,1,0,0,1,.39-.09.37.37,0,0,1,.2.05.39.39,0,0,1,.15.21,2,2,0,0,1,.1.41A4,4,0,0,1,837.72,399.87Zm-16.27-24.59A2.42,2.42,0,0,1,821,377a2.61,2.61,0,0,1-1.76.45,2.57,2.57,0,0,1-1.73-.44,2.31,2.31,0,0,1-.47-1.68,2.37,2.37,0,0,1,.49-1.72,2.54,2.54,0,0,1,1.75-.45,2.57,2.57,0,0,1,1.73.44A2.33,2.33,0,0,1,821.45,375.28Zm-.4,26a.48.48,0,0,1-.09.29.71.71,0,0,1-.28.21,2.48,2.48,0,0,1-.55.13c-.23,0-.52,0-.88,0s-.65,0-.88,0a2.48,2.48,0,0,1-.55-.13.62.62,0,0,1-.29-.21.54.54,0,0,1-.07-.29V381.84a.5.5,0,0,1,.07-.27.58.58,0,0,1,.29-.23,2.55,2.55,0,0,1,.55-.12,7.77,7.77,0,0,1,1.76,0,2.55,2.55,0,0,1,.55.12.66.66,0,0,1,.28.23.44.44,0,0,1,.09.27Zm-13.79-13.71a14,14,0,0,0-2.79-2.75,4.91,4.91,0,0,0-2.81-.94,3.93,3.93,0,0,0-2.31.65,4.8,4.8,0,0,0-1.54,1.71,7.77,7.77,0,0,0-.86,2.4,13,13,0,0,0-.28,2.72,18.25,18.25,0,0,0,.23,2.88,8.63,8.63,0,0,0,.78,2.5,4.7,4.7,0,0,0,1.5,1.76,3.88,3.88,0,0,0,2.32.66,5.34,5.34,0,0,0,1.38-.19,5.66,5.66,0,0,0,1.34-.65,10.87,10.87,0,0,0,1.44-1.18,17.44,17.44,0,0,0,1.6-1.78Zm3.58,13.71a.6.6,0,0,1-.07.3.56.56,0,0,1-.26.21,2.05,2.05,0,0,1-.49.12,7.1,7.1,0,0,1-.73,0c-.3,0-.55,0-.76,0a2.62,2.62,0,0,1-.5-.12.69.69,0,0,1-.28-.21.61.61,0,0,1-.08-.3v-2.59a13.57,13.57,0,0,1-3.18,2.6,7.31,7.31,0,0,1-3.63.92,7.51,7.51,0,0,1-3.65-.83,6.91,6.91,0,0,1-2.46-2.25,10.09,10.09,0,0,1-1.36-3.33,18.17,18.17,0,0,1-.44-4,17.48,17.48,0,0,1,.54-4.53,10.53,10.53,0,0,1,1.6-3.46,7.13,7.13,0,0,1,2.63-2.19,8.14,8.14,0,0,1,3.62-.77,6.57,6.57,0,0,1,3.12.75,11.1,11.1,0,0,1,2.8,2.2V372.52a.59.59,0,0,1,.07-.29.48.48,0,0,1,.3-.22,3.58,3.58,0,0,1,.54-.13,5.23,5.23,0,0,1,.86-.05,5.55,5.55,0,0,1,.89.05,2.71,2.71,0,0,1,.53.13.58.58,0,0,1,.3.22.45.45,0,0,1,.09.29Zm-25.65-9.74a14.37,14.37,0,0,0-.3-3,7.19,7.19,0,0,0-1-2.46,4.76,4.76,0,0,0-1.82-1.68,6.06,6.06,0,0,0-2.87-.62,6.18,6.18,0,0,0-2.73.56,5.07,5.07,0,0,0-1.87,1.6,6.76,6.76,0,0,0-1.09,2.43,12,12,0,0,0-.36,3.07,14.37,14.37,0,0,0,.29,3,7.13,7.13,0,0,0,1,2.46,4.81,4.81,0,0,0,1.83,1.66,6.9,6.9,0,0,0,5.58.06,5.08,5.08,0,0,0,1.89-1.58,6.92,6.92,0,0,0,1.08-2.43A12.93,12.93,0,0,0,785.19,391.58Zm3.72-.23a14.6,14.6,0,0,1-.63,4.39,9.59,9.59,0,0,1-1.86,3.44,8.47,8.47,0,0,1-3.11,2.26,10.87,10.87,0,0,1-4.34.81,11.12,11.12,0,0,1-4.18-.71,7.54,7.54,0,0,1-3-2.08,8.8,8.8,0,0,1-1.77-3.3,15.37,15.37,0,0,1-.58-4.42,14.75,14.75,0,0,1,.61-4.37,9.53,9.53,0,0,1,1.86-3.46,8.33,8.33,0,0,1,3.1-2.25,12.33,12.33,0,0,1,8.52-.08,7.62,7.62,0,0,1,3,2.07,9,9,0,0,1,1.79,3.31A15.24,15.24,0,0,1,788.91,391.35Z"/><rect class="cls-5" x="304.21" y="370.63" width="1.9" height="35.25"/><rect class="cls-5" x="460.89" y="370.63" width="1.9" height="35.25"/><rect class="cls-5" x="633.15" y="370.63" width="1.9" height="35.25"/></svg>