<svg xmlns="http://www.w3.org/2000/svg" width="72.097" height="65.12" viewBox="0 0 72.097 65.12"><defs><style>.a{fill:#40bb78;}</style></defs><path class="a" d="M76.027,32H12.07A4.074,4.074,0,0,0,8,36.07V82.584a4.075,4.075,0,0,0,4.07,4.07H35.458l-1.551,4.651h-2.65a1.163,1.163,0,0,0-1.163,1.163v2.326h-8.14a1.163,1.163,0,1,0,0,2.326H61.491a1.163,1.163,0,1,0,0-2.326H58V92.468a1.163,1.163,0,0,0-1.163-1.163H54.19l-1.551-4.651H76.027a4.075,4.075,0,0,0,4.07-4.07V36.07A4.075,4.075,0,0,0,76.027,32ZM55.677,93.631v1.163H32.42V93.631ZM36.359,91.306l1.551-4.651H50.187l1.551,4.651Zm41.412-8.721a1.746,1.746,0,0,1-1.744,1.744H12.07a1.746,1.746,0,0,1-1.744-1.744V80.84H77.771Zm0-4.07H10.326V36.07a1.746,1.746,0,0,1,1.744-1.744H76.027a1.746,1.746,0,0,1,1.744,1.744Z" transform="translate(-8 -32)"/><path class="a" d="M394.326,464h-1.163a1.163,1.163,0,1,0,0,2.326h1.163a1.163,1.163,0,0,0,0-2.326Z" transform="translate(-336.183 -401.206)"/><path class="a" d="M43.478,103.285a3.494,3.494,0,0,0,3.424-2.823l12.211-8.141a3.487,3.487,0,0,0,6.12-.327l12.079,4.026a3.489,3.489,0,0,0,6.809-.251l12.86-9.645a3.483,3.483,0,1,0-1.131-2.059L83.612,93.244a3.486,3.486,0,0,0-6.072.4L65.461,89.619a3.489,3.489,0,0,0-6.8.21L46.448,97.97a3.489,3.489,0,1,0-2.97,5.316ZM99.295,82.354a1.163,1.163,0,1,1-1.163,1.163A1.163,1.163,0,0,1,99.295,82.354ZM80.689,93.983a1.163,1.163,0,1,1-1.163,1.163A1.163,1.163,0,0,1,80.689,93.983ZM62.083,89.331a1.163,1.163,0,1,1-1.163,1.163A1.163,1.163,0,0,1,62.083,89.331Zm-18.606,9.3A1.163,1.163,0,1,1,42.315,99.8,1.163,1.163,0,0,1,43.478,98.634Z" transform="translate(-35.338 -73.051)"/><path class="a" d="M41.163,163.909h60.468a1.163,1.163,0,1,0,0-2.326h-1.163v-24.42a1.163,1.163,0,1,0-2.326,0v24.42H91.166v-6.977a1.163,1.163,0,1,0-2.326,0v6.977H81.863V149.954a1.163,1.163,0,1,0-2.326,0v11.629H72.56v-6.977a1.163,1.163,0,1,0-2.326,0v6.977H63.257V145.3a1.163,1.163,0,1,0-2.326,0v16.28H53.954v-6.977a1.163,1.163,0,1,0-2.326,0v6.977H44.651v-6.977a1.163,1.163,0,1,0-2.326,0v6.977H41.163a1.163,1.163,0,1,0,0,2.326Z" transform="translate(-35.349 -120.883)"/></svg>