<svg xmlns="http://www.w3.org/2000/svg" width="74.422" height="71.438" viewBox="0 0 74.422 71.438"><defs><style>.a{fill:#40bb78;}</style></defs><path class="a" d="M74.278,49.419A29.338,29.338,0,0,0,51.464,23.693V20a4.942,4.942,0,0,0-1.193-9.738H39.806A4.942,4.942,0,0,0,38.613,20v3.7A29.187,29.187,0,0,0,24.3,31.577a29.5,29.5,0,0,0-2.468,2.8c-.036,0-.073-.006-.11-.006H11.362a1.454,1.454,0,1,0,0,2.907h8.491a29.139,29.139,0,0,0-2.579,5.587H1.454a1.454,1.454,0,1,0,0,2.907h15a29.554,29.554,0,0,0-.721,5.587H9.3a1.454,1.454,0,1,0,0,2.907h6.474a29.511,29.511,0,0,0,.908,5.587H7.268a1.454,1.454,0,0,0,0,2.907H17.612a29.358,29.358,0,0,0,24.546,18.8q1.44.142,2.881.142a29.433,29.433,0,0,0,16.024-4.736,1.454,1.454,0,1,0-1.586-2.436,26.455,26.455,0,1,1,7.792-7.8,1.454,1.454,0,1,0,2.438,1.583A29.456,29.456,0,0,0,74.278,49.419ZM37.771,15.2a2.037,2.037,0,0,1,2.035-2.035H50.271a2.035,2.035,0,0,1,0,4.07H39.806A2.037,2.037,0,0,1,37.771,15.2Zm3.749,8V20.146h7.037V23.2A29.617,29.617,0,0,0,41.52,23.2Z" transform="translate(0 -10.262)"/><path class="a" d="M437.224,425.5a1.454,1.454,0,1,0,1.028.426A1.461,1.461,0,0,0,437.224,425.5Z" transform="translate(-372.428 -365.142)"/><path class="a" d="M177.421,144.609a22.549,22.549,0,1,0,22.549,22.549A22.575,22.575,0,0,0,177.421,144.609Zm0,42.191a19.642,19.642,0,1,1,19.642-19.642A19.664,19.664,0,0,1,177.421,186.8Z" transform="translate(-132.36 -125.081)"/><path class="a" d="M273.93,219.837l-7.2,7.2a4.505,4.505,0,0,0-3.99,0l-3.222-3.222a1.454,1.454,0,1,0-2.056,2.056l3.222,3.222a4.517,4.517,0,1,0,8.1,0l6.988-6.988h0l.211-.211a1.454,1.454,0,0,0-2.056-2.056Zm-9.195,12.86a1.61,1.61,0,1,1,1.61-1.61A1.612,1.612,0,0,1,264.735,232.7Z" transform="translate(-219.674 -189.01)"/><path class="a" d="M400.455,289.86h-1.347a1.454,1.454,0,1,0,0,2.907h1.347a1.454,1.454,0,1,0,0-2.907Z" transform="translate(-339.853 -249.219)"/><path class="a" d="M195.882,289.616h-1.347a1.454,1.454,0,1,0,0,2.907h1.347a1.454,1.454,0,1,0,0-2.907Z" transform="translate(-165.016 -249.01)"/><path class="a" d="M301.577,187.073a1.454,1.454,0,0,0,1.454-1.454v-1.347a1.454,1.454,0,1,0-2.907,0v1.347A1.454,1.454,0,0,0,301.577,187.073Z" transform="translate(-256.498 -157.737)"/><path class="a" d="M301.333,387.393a1.454,1.454,0,0,0-1.454,1.454v1.347a1.454,1.454,0,1,0,2.907,0v-1.347A1.454,1.454,0,0,0,301.333,387.393Z" transform="translate(-256.29 -332.574)"/><path class="a" d="M1.454,351.44a1.454,1.454,0,1,0,1.028,2.481,1.454,1.454,0,0,0-1.028-2.481Z" transform="translate(0 -301.847)"/></svg>